<svg width="182" height="132" xmlns="http://www.w3.org/2000/svg"><defs><linearGradient x1="94.672%" y1="96.998%" x2="50%" y2="6.442%" id="a"><stop stop-color="#FBFBFB" offset="0%"/><stop stop-color="#F6F6F6" offset="100%"/></linearGradient><linearGradient x1="62.795%" y1="86.129%" x2="33.382%" y2="-5.781%" id="b"><stop stop-color="#FCFCFC" offset="0%"/><stop stop-color="#F6F6F6" offset="100%"/></linearGradient><linearGradient x1="50%" y1="0%" x2="50%" y2="100%" id="c"><stop stop-color="#FDFDFD" offset="0%"/><stop stop-color="#EEE" offset="100%"/></linearGradient></defs><g fill="none" fill-rule="evenodd"><path fill="url(#a)" d="M52.528 2l24.529 48.451H28z"/><path fill="url(#b)" d="M42.395 0L67.83 50.874H16.958z"/><path d="M12.724 50.268h158.671v39.366h-7.57l-4.845 9.69-4.845-9.69h-6.057l-3.028 6.057-3.028-6.057h-7.873l-3.028 6.057-3.029-6.057h-8.781l-1.515 3.029-1.514-3.029h-7.267l-1.514 3.029-1.514-3.029h-35.85l29.32 7.857 2.696-3.039.814 3.98 6.98 1.87 2.501-2.821.757 3.694 7.996 2.142 5.177-5.836 1.565 7.643 6.628 1.776 5.131-5.786 1.551 7.576 4.573 1.225 7.806-8.8 2.36 11.524 7.198 1.93-4.588 17.123L1.64 89.634H0V43.606l13.022 6.513-.298.149z" fill="url(#c)"/><path fill="#000" d="M171.395 71.465l10.296-21.197h-21.197zM83.578 59.352h9.085v9.085h-9.085z"/><path fill="#FFF" d="M88.423 61.17h2.423v2.422h-2.423z"/></g></svg>